# xmcd
#
# Track frame offsets:
#	150
#	23892
#	70635
#	88670
#	129565
#	154367
#	180740
#	209432
#	245182
#	273905
#	294572
#
# Disc length: 4375 seconds
#
# Revision: 0
# Processed by: cddbd v1.4PL0 Copyright (c) Steve Scherf et al.
# Submitted via: EasyCDDAExtractor 5.0.4.1
#
DISCID=a411150b
DTITLE=Calvin Owens and Orchestra - Another Concept
DYEAR=1900
DGENRE=Blues
TTITLE0=Sawdust Alley
TTITLE1=Sunday Afternoon
TTITLE2=Song for Helse
TTITLE3=Porky Frog
TTITLE4=Listen to My Song
TTITLE5=Pat's Tune
TTITLE6=Your Love Is Gone
TTITLE7=Lick or Split
TTITLE8=Vincent Van Gogh
TTITLE9=Opus L. A.
TTITLE10=Bubbha
EXTD=
EXTT0=
EXTT1=
EXTT2=
EXTT3=
EXTT4=
EXTT5=
EXTT6=
EXTT7=
EXTT8=
EXTT9=
EXTT10=
PLAYORDER=
